<svg width="64" height="64" viewBox="0 0 64 64" fill="none" xmlns="http://www.w3.org/2000/svg">
<g id="Logo ALT">
<g id="Grafik">
<path d="M22.2872 46.6296L22.1127 41.0356C21.0158 42.0083 19.8568 42.5139 18.5263 42.5139C14.5348 42.5139 13.1333 38.7205 13.1333 31.9231C13.1333 25.862 14.5318 21.4684 18.2868 21.4684C19.7356 21.4684 20.7201 21.8379 21.9915 22.5801L22.1423 16.9358C20.8415 16.3849 19.4422 16.1042 18.0296 16.1109C11.3475 16.1109 7.903 23.0502 7.903 32.9461C7.903 40.7192 10.2831 47.9778 17.2608 47.9778C19.0248 47.9801 20.7583 47.5182 22.2872 46.6385V46.6296Z" fill="#292827"/>
<path d="M40.9881 54.1691V48.8205H29.6434V31.8374H39.6044V26.7904H29.6434V14.7153H40.9881V9.64761H24.0198V54.1691H40.9881Z" fill="#292827"/>
<path d="M49.5042 29.2597C52.1911 30.7312 55.3015 32.4346 55.3015 37.9133C55.3015 43.7173 51.7062 47.966 46.3132 47.966C44.4564 47.966 42.9426 47.7413 41.5589 47.1913V41.5737C42.9371 42.3457 44.4827 42.7699 46.0619 42.8096C48.4834 42.8096 49.9617 41.5737 49.9617 38.7412C49.9617 36.1634 48.227 35.2346 46.2586 34.1807C43.6778 32.799 40.6955 31.2022 40.6955 25.3918C40.6955 19.9043 44.1223 16.1109 49.3822 16.1109C50.7339 16.1109 51.6932 16.3978 52.91 16.7616C53.0294 16.7973 53.1512 16.8338 53.2762 16.8707V22.175C51.8954 21.5364 50.7866 21.0456 49.5064 21.0456C46.7863 21.0456 45.6627 22.4618 45.6627 24.7473C45.6627 27.1559 47.4611 28.1408 49.5042 29.2597Z" fill="#292827"/>
<path fill-rule="evenodd" clip-rule="evenodd" d="M31.9882 2.17643e-06C14.3162 0.00651252 -0.0050242 14.3369 1.32224e-06 32.0089C0.00503093 49.6809 14.3339 64.0033 32.0059 64C49.6779 63.9968 64.0018 49.669 64 31.997C63.9996 27.794 63.1712 23.6322 61.5622 19.7494C59.9531 15.8665 57.5949 12.3387 54.6222 9.36735C51.6495 6.39605 48.1206 4.03945 44.237 2.43218C40.3534 0.824907 36.1912 -0.0015479 31.9882 2.17643e-06ZM31.9882 60.384C16.3119 60.384 3.60418 47.6762 3.60418 32C3.60418 16.3238 16.3119 3.616 31.9882 3.616C47.6644 3.616 60.3722 16.3238 60.3722 32C60.3704 47.6748 47.6629 60.381 31.9882 60.381V60.384Z" fill="#292827"/>
</g>
</g>
</svg>
